<?xml version='1.0' encoding='iso-8859-1'?>
<svg version="1.1" xmlns="http://www.w3.org/2000/svg" viewBox="0 0 490.001 490.001" xmlns:xlink="http://www.w3.org/1999/xlink" enable-background="new 0 0 490.001 490.001">
  <path d="m489.999,246.509c0.001-0.059 0.001-0.116 0.001-0.175s0-0.116-0.001-0.175v-91.159c0-8.284-6.716-15-15-15h-198.774l-47.359-47.354 248.28-35.898c8.199-1.186 13.885-8.793 12.699-16.992s-8.792-13.891-16.992-12.699l-270.472,39.107-61.775-61.771c-2.813-2.813-6.628-4.393-10.606-4.393h-115c-8.284,0-15,6.716-15,15v139.196c0,0.135 0.002,0.269 0.005,0.401-0.003,0.135-0.005,0.269-0.005,0.404v320c0,8.284 6.716,15 15,15h58.893c3.978,0 7.793-1.58 10.606-4.393l31.923-31.92h257.155l31.923,31.92c2.813,2.813 6.629,4.393 10.606,4.393h58.893c8.284,0 15-6.716 15-15v-158.492c0.001-0.059 0.001-0.116 0.001-0.175s0-0.116-0.001-0.175v-69.65zm-459.999-216.508h93.787l110.01,110h-203.797v-110zm429.999,271.334h-269.999v-40h269.999v40zm0-70h-284.999c-8.284,0-15,6.716-15,15v70c0,8.284 6.716,15 15,15h284.999v128.666h-37.68l-31.923-31.92c-2.813-2.813-6.629-4.393-10.606-4.393h-269.581c-3.978,0-7.793,1.58-10.606,4.393l-31.923,31.92h-37.68v-290h429.999v61.334z"/>
</svg>
