<svg xmlns="http://www.w3.org/2000/svg" xmlns:html="http://www.w3.org/1999/xhtml" xmlns:xlink="http://www.w3.org/1999/xlink" version="1.1" class="blocklySvg" width="144.139892578125px" height="157px"><style xmlns="http://www.w3.org/1999/xhtml">.blocklyDraggable {}          .blocklySvg {            overflow: hidden;          }          .blocklyWidgetDiv {            display: none;            position: absolute;            z-index: 999;          }          .blocklyResizeSE {            cursor: se-resize;            fill: #aaa;          }          .blocklyResizeSW {            cursor: sw-resize;            fill: #aaa;          }          .blocklyResizeLine {            stroke: #888;            stroke-width: 1;          }          .blocklyHighlightedConnectionPath {            fill: none;            stroke: #fc3;            stroke-width: 4px;          }          .blocklyPathLight {            fill: none;            stroke-linecap: round;            stroke-width: 2;          }          .blocklySelected&gt;.blocklyPath {            stroke: #fc3;            stroke-width: 3px;          }          .blocklySelected&gt;.blocklyPathLight {            display: none;          }          .blocklyDragging&gt;.blocklyPath,          .blocklyDragging&gt;.blocklyPathLight {            fill-opacity: .8;            stroke-opacity: .8;          }          .blocklyDragging&gt;.blocklyPathDark {            display: none;          }          .blocklyDisabled&gt;.blocklyPath {            fill-opacity: .5;            stroke-opacity: .5;          }          .blocklyDisabled&gt;.blocklyPathLight,          .blocklyDisabled&gt;.blocklyPathDark {            display: none;          }          .blocklyText {            cursor: default;            fill: #fff;            font-family: sans-serif;            font-size: 11pt;          }          .blocklyNonEditableText&gt;text {            pointer-events: none;          }          .blocklyNonEditableText&gt;rect,          .blocklyEditableText&gt;rect {            fill: #fff;            fill-opacity: .6;          }          .blocklyNonEditableText&gt;text,          .blocklyEditableText&gt;text {            fill: #000;          }          .blocklyBubbleText {            fill: #000;          }          .blocklySvg text {            user-select: none;            -moz-user-select: none;            -webkit-user-select: none;            cursor: inherit;          }          .blocklyHidden {            display: none;          }          .blocklyFieldDropdown:not(.blocklyHidden) {            display: block;          }          .blocklyTooltipBackground {            fill: #ffffc7;            stroke: #d8d8d8;            stroke-width: 1px;          }          .blocklyTooltipShadow,          .blocklyDropdownMenuShadow {            fill: #bbb;            filter: url(#blocklyShadowFilter);          }          .blocklyTooltipText {            fill: #000;            font-family: sans-serif;            font-size: 9pt;          }          .blocklyIconShield {            cursor: default;            fill: #00c;            stroke: #ccc;            stroke-width: 1px;          }          .blocklyIconMark {            cursor: default !important;            fill: #ccc;            font-family: sans-serif;            font-size: 9pt;            font-weight: bold;            text-anchor: middle;          }          .blocklyWarningBody {          }          .blocklyMinimalBody {            margin: 0;            padding: 0;          }          .blocklyCommentTextarea {            background-color: #ffc;            border: 0;            margin: 0;            padding: 2px;            resize: none;          }          .blocklyHtmlInput {            border: none;            font-family: sans-serif;            font-size: 11pt;            outline: none;            width: 100%          }          .blocklyMutatorBackground {            fill: #fff;            stroke: #ddd;            stroke-width: 1;          }          .blocklyFlyoutBackground {            fill: #ddd;            fill-opacity: .8;          }          .blocklyColourBackground {            fill: #666;          }          .blocklyScrollbarBackground {            fill: #fff;            stroke: #e4e4e4;            stroke-width: 1;          }          .blocklyScrollbarKnob {            fill: #ccc;          }          .blocklyInvalidInput {            background: #faa;          }          .blocklyAngleCircle {            stroke: #444;            stroke-width: 1;            fill: #ddd;            fill-opacity: .8;          }          .blocklyAngleMarks {            stroke: #444;            stroke-width: 1;          }          .blocklyAngleGauge {            fill: #f88;            fill-opacity: .8;            }          .blocklyAngleLine {            stroke: #f00;            stroke-width: 2;            stroke-linecap: round;          }          .blocklyContextMenu {            border-radius: 4px;          }          .blocklyDropdownMenu {            padding: 0 !important;          }          .blocklyWidgetDiv .goog-option-selected .goog-menuitem-checkbox,          .blocklyWidgetDiv .goog-option-selected .goog-menuitem-icon {            background: url(blockly/media/sprites.png) no-repeat -48px -16px !important;          }          .blocklyToolboxDiv {            background-color: #ddd;            display: none;            overflow-x: visible;            overflow-y: auto;            position: absolute;          }          .blocklyTreeRoot {            padding: 4px 0;          }          .blocklyTreeRoot:focus {            outline: none;          }          .blocklyTreeRow {            line-height: 22px;            height: 22px;            padding-right: 1em;            white-space: nowrap;          }          .blocklyToolboxDiv[dir="RTL"] .blocklyTreeRow {            padding-right: 0;            padding-left: 1em !important;          }          .blocklyTreeSeparator {            border-bottom: solid #e5e5e5 1px;            height: 0px;            margin: 5px 0;          }          .blocklyTreeIcon {            background-image: url(blockly/media/sprites.png);            height: 16px;            vertical-align: middle;            width: 16px;          }          .blocklyTreeIconClosedLtr {            background-position: -32px -1px;          }          .blocklyTreeIconClosedRtl {            background-position: 0px -1px;          }          .blocklyTreeIconOpen {            background-position: -16px -1px;          }          .blocklyTreeSelected&gt;.blocklyTreeIconClosedLtr {            background-position: -32px -17px;          }          .blocklyTreeSelected&gt;.blocklyTreeIconClosedRtl {            background-position: 0px -17px;          }          .blocklyTreeSelected&gt;.blocklyTreeIconOpen {            background-position: -16px -17px;          }          .blocklyTreeIconNone,          .blocklyTreeSelected&gt;.blocklyTreeIconNone {            background-position: -48px -1px;          }          .blocklyTreeLabel {            cursor: default;            font-family: sans-serif;            font-size: 16px;            padding: 0 3px;            vertical-align: middle;          }          .blocklyTreeSelected  {            background-color: #57e !important;          }          .blocklyTreeSelected .blocklyTreeLabel {            color: #fff;          }          .blocklyWidgetDiv .goog-palette {            outline: none;            cursor: default;          }          .blocklyWidgetDiv .goog-palette-table {            border: 1px solid #666;            border-collapse: collapse;          }          .blocklyWidgetDiv .goog-palette-cell {            height: 13px;            width: 15px;            margin: 0;            border: 0;            text-align: center;            vertical-align: middle;            border-right: 1px solid #666;            font-size: 1px;          }          .blocklyWidgetDiv .goog-palette-colorswatch {            position: relative;            height: 13px;            width: 15px;            border: 1px solid #666;          }          .blocklyWidgetDiv .goog-palette-cell-selected .goog-palette-colorswatch {            border: 1px solid #000;            color: #fff;          }          .blocklyWidgetDiv .goog-date-picker,          .blocklyWidgetDiv .goog-date-picker th,          .blocklyWidgetDiv .goog-date-picker td {            font: 13px Arial, sans-serif;          }          .blocklyWidgetDiv .goog-date-picker {            -moz-user-focus: normal;            -moz-user-select: none;            position: relative;            border: 1px solid #000;            float: left;            padding: 2px;            color: #000;            background: #c3d9ff;            cursor: default;          }          .blocklyWidgetDiv .goog-date-picker th {            text-align: center;          }          .blocklyWidgetDiv .goog-date-picker td {            text-align: center;            vertical-align: middle;            padding: 1px 3px;          }          .blocklyWidgetDiv .goog-date-picker-menu {            position: absolute;            background: threedface;            border: 1px solid gray;            -moz-user-focus: normal;            z-index: 1;            outline: none;          }          .blocklyWidgetDiv .goog-date-picker-menu ul {            list-style: none;            margin: 0px;            padding: 0px;          }          .blocklyWidgetDiv .goog-date-picker-menu ul li {            cursor: default;          }          .blocklyWidgetDiv .goog-date-picker-menu-selected {            background: #ccf;          }          .blocklyWidgetDiv .goog-date-picker th {            font-size: .9em;          }          .blocklyWidgetDiv .goog-date-picker td div {            float: left;          }          .blocklyWidgetDiv .goog-date-picker button {            padding: 0px;            margin: 1px 0;            border: 0;            color: #20c;            font-weight: bold;            background: transparent;          }          .blocklyWidgetDiv .goog-date-picker-date {            background: #fff;          }          .blocklyWidgetDiv .goog-date-picker-week,          .blocklyWidgetDiv .goog-date-picker-wday {            padding: 1px 3px;            border: 0;            border-color: #a2bbdd;            border-style: solid;          }          .blocklyWidgetDiv .goog-date-picker-week {            border-right-width: 1px;          }          .blocklyWidgetDiv .goog-date-picker-wday {            border-bottom-width: 1px;          }          .blocklyWidgetDiv .goog-date-picker-head td {            text-align: center;          }          .blocklyWidgetDiv td.goog-date-picker-today-cont {            text-align: center;          }          .blocklyWidgetDiv td.goog-date-picker-none-cont {            text-align: center;          }          .blocklyWidgetDiv .goog-date-picker-month {            min-width: 11ex;            white-space: nowrap;          }          .blocklyWidgetDiv .goog-date-picker-year {            min-width: 6ex;            white-space: nowrap;          }          .blocklyWidgetDiv .goog-date-picker-monthyear {            white-space: nowrap;          }          .blocklyWidgetDiv .goog-date-picker table {            border-collapse: collapse;          }          .blocklyWidgetDiv .goog-date-picker-other-month {            color: #888;          }          .blocklyWidgetDiv .goog-date-picker-wkend-start,          .blocklyWidgetDiv .goog-date-picker-wkend-end {            background: #eee;          }          .blocklyWidgetDiv td.goog-date-picker-selected {            background: #c3d9ff;          }          .blocklyWidgetDiv .goog-date-picker-today {            background: #9ab;            font-weight: bold !important;            border-color: #246 #9bd #9bd #246;            color: #fff;          }          .blocklyWidgetDiv .goog-menu {            background: #fff;            border-color: #ccc #666 #666 #ccc;            border-style: solid;            border-width: 1px;            cursor: default;            font: normal 13px Arial, sans-serif;            margin: 0;            outline: none;            padding: 4px 0;            position: absolute;            z-index: 20000;          }          .blocklyWidgetDiv .goog-menuitem {            color: #000;            font: normal 13px Arial, sans-serif;            list-style: none;            margin: 0;            padding: 4px 7em 4px 28px;            white-space: nowrap;          }          .blocklyWidgetDiv .goog-menuitem.goog-menuitem-rtl {            padding-left: 7em;            padding-right: 28px;          }          .blocklyWidgetDiv .goog-menu-nocheckbox .goog-menuitem,          .blocklyWidgetDiv .goog-menu-noicon .goog-menuitem {            padding-left: 12px;          }          .blocklyWidgetDiv .goog-menu-noaccel .goog-menuitem {            padding-right: 20px;          }          .blocklyWidgetDiv .goog-menuitem-content {            color: #000;            font: normal 13px Arial, sans-serif;          }          .blocklyWidgetDiv .goog-menuitem-disabled .goog-menuitem-accel,          .blocklyWidgetDiv .goog-menuitem-disabled .goog-menuitem-content {            color: #ccc !important;          }          .blocklyWidgetDiv .goog-menuitem-disabled .goog-menuitem-icon {            opacity: 0.3;            -moz-opacity: 0.3;            filter: alpha(opacity=30);          }          .blocklyWidgetDiv .goog-menuitem-highlight,          .blocklyWidgetDiv .goog-menuitem-hover {            background-color: #d6e9f8;            border-color: #d6e9f8;            border-style: dotted;            border-width: 1px 0;            padding-bottom: 3px;            padding-top: 3px;          }          .blocklyWidgetDiv .goog-menuitem-checkbox,          .blocklyWidgetDiv .goog-menuitem-icon {            background-repeat: no-repeat;            height: 16px;            left: 6px;            position: absolute;            right: auto;            vertical-align: middle;            width: 16px;          }          .blocklyWidgetDiv .goog-menuitem-rtl .goog-menuitem-checkbox,          .blocklyWidgetDiv .goog-menuitem-rtl .goog-menuitem-icon {            left: auto;            right: 6px;          }          .blocklyWidgetDiv .goog-option-selected .goog-menuitem-checkbox,          .blocklyWidgetDiv .goog-option-selected .goog-menuitem-icon {            background: url(//ssl.gstatic.com/editor/editortoolbar.png) no-repeat -512px 0;          }          .blocklyWidgetDiv .goog-menuitem-accel {            color: #999;            direction: ltr;            left: auto;            padding: 0 6px;            position: absolute;            right: 0;            text-align: right;          }          .blocklyWidgetDiv .goog-menuitem-rtl .goog-menuitem-accel {            left: 0;            right: auto;            text-align: left;          }          .blocklyWidgetDiv .goog-menuitem-mnemonic-hint {            text-decoration: underline;          }          .blocklyWidgetDiv .goog-menuitem-mnemonic-separator {            color: #999;            font-size: 12px;            padding-left: 4px;          }          .blocklyWidgetDiv .goog-menuseparator {            border-top: 1px solid #ccc;            margin: 4px 0;            padding: 0;          }</style><defs><pattern id="blocklyDisabledPattern667201153197736" patternUnits="userSpaceOnUse" width="10" height="10"><rect width="10" height="10" fill="#aaa"/><path d="M 0 0 L 10 10 M 10 0 L 0 10" stroke="#cc0"/></pattern><pattern id="blocklyGridPattern667201153197736" patternUnits="userSpaceOnUse" width="100" height="100" x="302.17064666748036" y="-2.99999999999784"/></defs><g class="blocklyWorkspace"><g class="blocklyBlockCanvas" id="TheComposeBlockSVGCanvas"><g class="blocklyDraggable"><path class="blocklyPathDark" transform="translate(1,1)" fill="#498449" d="m 0,8 A 8,8 0 0,1 8,0 H 88.4415283203125 v 25 H 50 l -6,4 -3,0 -6,-4 h -7 a 8,8 0 0,0 -8,8 v 105 a 8,8 0 0,0 8,8 H 88.4415283203125 v 10 H 8 a 8,8 0 0,1 -8,-8 z&#10;"/><path class="blocklyPath" fill="#5ba55b" d="m 0,8 A 8,8 0 0,1 8,0 H 88.4415283203125 v 25 H 50 l -6,4 -3,0 -6,-4 h -7 a 8,8 0 0,0 -8,8 v 105 a 8,8 0 0,0 8,8 H 88.4415283203125 v 10 H 8 a 8,8 0 0,1 -8,-8 z&#10;"/><path class="blocklyPathLight" stroke="#8cc08c" d="m 0.5,7.5 A 7.5,7.5 0 0,1 8,0.5 H 87.9415283203125 M 87.9415283203125,0.5 M 87.9415283203125,25.5 M 21.989592359914347,144.01040764008565 a 8.5,8.5 0 0,0 6.0104076400856545,2.4895923599143455 H 87.9415283203125 M 2.6966991411008934,153.3033008588991 A 7.5,7.5 0 0,1 0.5,148 V 8&#10;"/><text class="blocklyText" y="12.5" transform="translate(10,5)">Composer</text><g class="blocklyDraggable" transform="translate(21,26)"><path class="blocklyPathDark" transform="translate(1,1)" fill="#844966" d="m 0,8 A 8,8 0 0,1 8,0 H 15 l 6,4 3,0 6,-4 H 40 H 99.79071807861328 v 25 H 29.5 l -6,4 -3,0 -6,-4 H 0 z&#10;"/><path class="blocklyPath" fill="#a55b80" d="m 0,8 A 8,8 0 0,1 8,0 H 15 l 6,4 3,0 6,-4 H 40 H 99.79071807861328 v 25 H 29.5 l -6,4 -3,0 -6,-4 H 0 z&#10;"/><path class="blocklyPathLight" stroke="#c08ca6" d="m 0.5,7.5 A 7.5,7.5 0 0,1 8,0.5 H 15 l 6,4 3,0 6,-4 H 39.5 M 39.5,0.5 H 99.29071807861328 M 0.5,24.5 V 8&#10;"/><text class="blocklyText" y="12.5" transform="translate(10,5)">Plain Text</text><g class="blocklyEditableText" transform="translate(82.1795883178711,5)" style="cursor: text;"><rect rx="4" ry="4" x="-5" y="0" height="16" width="17.611129760742188"/><text class="blocklyText" y="12.5">a</text></g><g class="blocklyDraggable" transform="translate(0,26)"><path class="blocklyPathDark" transform="translate(1,1)" fill="#496684" d="m 0,0 H 15 l 6,4 3,0 6,-4 H 50 H 64.8455581665039 v 25 H 50 l -6,4 -3,0 -6,-4 h -7 a 8,8 0 0,0 -8,8 v 14 a 8,8 0 0,0 8,8 H 50 v 10 H 29.5 l -6,4 -3,0 -6,-4 H 0 z&#10;"/><path class="blocklyPath" fill="#5b80a5" d="m 0,0 H 15 l 6,4 3,0 6,-4 H 50 H 64.8455581665039 v 25 H 50 l -6,4 -3,0 -6,-4 h -7 a 8,8 0 0,0 -8,8 v 14 a 8,8 0 0,0 8,8 H 50 v 10 H 29.5 l -6,4 -3,0 -6,-4 H 0 z&#10;"/><path class="blocklyPathLight" stroke="#8ca6c0" d="m 0.5,0.5 H 15 l 6,4 3,0 6,-4 H 49.5 M 49.5,0.5 H 64.3455581665039 M 49.5,25.5 M 21.989592359914347,53.01040764008565 a 8.5,8.5 0 0,0 6.0104076400856545,2.4895923599143455 H 49.5 M 0.5,64.5 V 0.5&#10;"/><text class="blocklyText" y="12.5" transform="translate(10,5)">Maybe</text><g class="blocklyDraggable" transform="translate(0,66)"><path class="blocklyPathDark" transform="translate(1,1)" fill="#844966" d="m 0,0 H 15 l 6,4 3,0 6,-4 H 40 H 99.79071807861328 v 25 H 29.5 l -6,4 -3,0 -6,-4 H 8 a 8,8 0 0,1 -8,-8 z&#10;"/><path class="blocklyPath" fill="#a55b80" d="m 0,0 H 15 l 6,4 3,0 6,-4 H 40 H 99.79071807861328 v 25 H 29.5 l -6,4 -3,0 -6,-4 H 8 a 8,8 0 0,1 -8,-8 z&#10;"/><path class="blocklyPathLight" stroke="#c08ca6" d="m 0.5,0.5 H 15 l 6,4 3,0 6,-4 H 39.5 M 39.5,0.5 H 99.29071807861328 M 2.6966991411008934,22.303300858899107 A 7.5,7.5 0 0,1 0.5,17 V 0.5&#10;"/><text class="blocklyText" y="12.5" transform="translate(10,5)">Plain Text</text><g class="blocklyEditableText" transform="translate(82.1795883178711,5)" style="cursor: text;"><rect rx="4" ry="4" x="-5" y="0" height="16" width="17.611129760742188"/><text class="blocklyText" y="12.5">a</text></g></g><g class="blocklyDraggable" transform="translate(21,26)"><path class="blocklyPathDark" transform="translate(1,1)" fill="#844966" d="m 0,8 A 8,8 0 0,1 8,0 H 15 l 6,4 3,0 6,-4 H 40 H 101.13990020751953 v 25 H 29.5 l -6,4 -3,0 -6,-4 H 8 a 8,8 0 0,1 -8,-8 z&#10;"/><path class="blocklyPath" fill="#a55b80" d="m 0,8 A 8,8 0 0,1 8,0 H 15 l 6,4 3,0 6,-4 H 40 H 101.13990020751953 v 25 H 29.5 l -6,4 -3,0 -6,-4 H 8 a 8,8 0 0,1 -8,-8 z&#10;"/><path class="blocklyPathLight" stroke="#c08ca6" d="m 0.5,7.5 A 7.5,7.5 0 0,1 8,0.5 H 15 l 6,4 3,0 6,-4 H 39.5 M 39.5,0.5 H 100.63990020751953 M 2.6966991411008934,22.303300858899107 A 7.5,7.5 0 0,1 0.5,17 V 8&#10;"/><text class="blocklyText" y="12.5" transform="translate(10,5)">Plain Text</text><g class="blocklyEditableText" transform="translate(82.1795883178711,5)" style="cursor: text;"><rect rx="4" ry="4" x="-5" y="0" height="16" width="18.960311889648438"/><text class="blocklyText" y="12.5">b</text></g></g></g></g></g></g></g></svg>